# xmcd CD database file generated by Grip 3.0.0
# 
# Track frame offsets:
#       150
#       12357
#       23352
#       35075
#       49017
#       58532
#       70332
#       84642
#       97232
#       111757
#       123557
#       136740
#       148510
#       162057
#       174760
# 
# Disc length: 2525 seconds
# 
# Revision: 3
# Processed by: cddbd v1.5.1PL0 Copyright (c) Steve Scherf et al.
# Submitted via: Grip 3.0.0
# 
DISCID=c209db0f
DTITLE=Various Artist - Blues For You - CD 1
DYEAR=1997
DGENRE=Blues
TTITLE0=John Lee Hooker - I'm In The Mood
TTITLE1=Howlin' Wolf - The Red Rooster
TTITLE2=Sonny Boy Williamson - Bring It On Home To Me
TTITLE3=Etta James - I Just Want To Make Love To You
TTITLE4=Eddie Burns - Jinglin' Baby
TTITLE5=Willie Mabon - I'm Mad
TTITLE6=T-Bone Walker - Cold Cold Feeling
TTITLE7=Little Joe Blue - Dirty Work Goin' On
TTITLE8=Brownie McGhee and Sonny Terry - Baby Please Don't Go
TTITLE9=Junior Parker - Drivin' Wheel
TTITLE10=James Davis - Blue Monday
TTITLE11=The Big Three Trio - Wrinkles
TTITLE12=Buddy Guy - My Time After A While
TTITLE13=Jimmy Red - Shame Shame Shame
TTITLE14=Etta James - W.O.M.A.N.
EXTD=
EXTT0=
EXTT1=
EXTT2=
EXTT3=
EXTT4=
EXTT5=
EXTT6=
EXTT7=
EXTT8=
EXTT9=
EXTT10=
EXTT11=
EXTT12=
EXTT13=
EXTT14=
PLAYORDER=
